<?xml version="1.0" encoding="utf-8"?>
<!-- Generator: Adobe Illustrator 22.0.1, SVG Export Plug-In . SVG Version: 6.00 Build 0)  -->
<svg version="1.0" xmlns="http://www.w3.org/2000/svg" xmlns:xlink="http://www.w3.org/1999/xlink" x="0px" y="0px"
	 viewBox="0 0 320 320" enable-background="new 0 0 320 320" xml:space="preserve">
<g id="Layer_1" display="none">
	
		<image display="inline" overflow="visible" width="320" height="320" xlink:href="../../GitAnnexPresent/icon.png"  transform="matrix(1 0 0 1 6.7212 10.3438)">
	</image>
</g>
<g id="Layer_2">
	<path fill="#42C14E" stroke="#93FFAE" stroke-width="25" stroke-miterlimit="10" d="M103.2,80.3l-88.3,96.4c-1,1.1,0,2.9,1.5,2.6
		L190,143.8c0.1,0,0.3-0.1,0.3-0.3l52.8-128.7c0.2-0.4-0.2-0.7-0.6-0.6L103.4,80.2C103.3,80.2,103.3,80.2,103.2,80.3z"/>
	<path fill="#42C14E" stroke="#93FFAE" stroke-width="25" stroke-miterlimit="10" d="M126,284.5L16.1,182.8c-1.4-1.3-1.7-3.6,0.1-4
		l175.2-35.5l96.1,161.3c0.1,0.2,0,0.4-0.2,0.3L126,284.5z"/>
	<path fill="#42C14E" stroke="#93FFAE" stroke-width="25" stroke-miterlimit="10" d="M295.2,153.6l-50.4-140c0-0.1-0.1-0.1-0.2,0
		l-53.2,129.7c0,0,0,0.1,0,0.1l95.7,160.8c0.2,0.3,0.6,0.2,0.6-0.2L295.2,153.6C295.2,153.6,295.2,153.6,295.2,153.6z"/>
</g>
</svg>
