<?xml version="1.0" encoding="utf-8"?>
<!-- Generator: Adobe Illustrator 22.0.1, SVG Export Plug-In . SVG Version: 6.00 Build 0)  -->
<svg version="1.0" id="Layer_1" xmlns="http://www.w3.org/2000/svg" xmlns:xlink="http://www.w3.org/1999/xlink" x="0px" y="0px"
	 viewBox="0 0 200 200" enable-background="new 0 0 200 200" xml:space="preserve">
<g>
	<path fill="none" stroke="#ED1C24" stroke-width="10" stroke-miterlimit="10" d="M100.2,165.4c-7.6,0-14.2-1.7-19.8-5.1
		c-5.6-3.4-9.9-8.1-12.9-13.9c-3-5.9-5.2-12.1-6.5-18.6c-1.4-6.6-2-13.7-2-21.3c0-7.4,0.7-14.3,2-20.8c1.3-6.5,3.4-12.7,6.4-18.6
		c2.9-6,7.2-10.7,12.9-14.3c5.6-3.5,12.3-5.3,20-5.3c7.7,0,14.4,1.7,20,5.1c5.6,3.4,9.9,8.1,12.9,13.9c3,5.9,5.2,12.1,6.5,18.6
		c1.4,6.6,2,13.7,2,21.3c0,7.4-0.7,14.3-2,20.8c-1.4,6.5-3.5,12.7-6.4,18.6c-2.9,6-7.2,10.7-12.9,14.3
		C114.5,163.6,107.9,165.4,100.2,165.4z M87,141c3.4,4.1,7.8,6.2,13.2,6.2c5.4,0,9.9-2.1,13.3-6.4s5.7-9.2,6.8-14.9
		c1.1-5.7,1.7-12.2,1.7-19.5c0-7.4-0.6-14-1.8-19.7c-1.2-5.8-3.5-10.7-6.9-14.8c-3.4-4.1-7.8-6.2-13.1-6.2c-5.4,0-9.9,2.1-13.3,6.4
		c-3.4,4.2-5.7,9.2-6.8,14.9c-1.1,5.7-1.7,12.2-1.7,19.5c0,7.4,0.6,14,1.8,19.7C81.3,131.9,83.6,136.8,87,141z M108.4,114.7
		c-2.2,2.2-5,3.3-8.2,3.3c-3.3,0-6-1.1-8.1-3.3c-2.2-2.2-3.3-5-3.3-8.2c0-3.1,1.1-5.8,3.3-8.1c2.2-2.2,4.9-3.3,8.1-3.3
		c3.3,0,6,1.1,8.2,3.3c2.2,2.2,3.3,4.9,3.3,8.1C111.7,109.7,110.6,112.4,108.4,114.7z"/>
</g>
</svg>
